<svg width="26" height="26" viewBox="0 0 26 26" fill="none" xmlns="http://www.w3.org/2000/svg">
<path fill-rule="evenodd" clip-rule="evenodd" d="M11.7169 22.6118C12.1919 22.6845 12.6783 22.7222 13.1736 22.7222C18.4472 22.7222 22.7222 18.4472 22.7222 13.1736C22.7222 7.90005 18.4472 3.625 13.1736 3.625C12.8198 3.625 12.4704 3.64424 12.1266 3.68174C14.7426 5.66362 16.4722 9.09678 16.4722 13C16.4722 17.1035 14.5605 20.6875 11.7169 22.6118ZM13 25.5C19.9035 25.5 25.5 19.9036 25.5 13C25.5 6.09644 19.9035 0.5 13 0.5C6.09642 0.5 0.5 6.09644 0.5 13C0.5 19.9036 6.09642 25.5 13 25.5Z" fill="#58575F"/>
</svg>
