<svg width="22" height="26" viewBox="0 0 22 26" fill="none" xmlns="http://www.w3.org/2000/svg">
<path fill-rule="evenodd" clip-rule="evenodd" d="M12.2127 12.9454C12.3822 12.842 12.5259 12.6255 12.6418 12.3849C14.1675 13.0084 15.2396 14.4819 15.2396 16.2002C15.2396 18.4829 13.3475 20.3334 11.0135 20.3334C10.0554 20.3334 9.17178 20.0216 8.46294 19.496C8.23042 19.3859 8.03911 19.2802 7.88257 19.1936C7.63975 19.0594 7.48052 18.9713 7.38081 18.9851C7.08936 19.0253 7.17398 19.2935 7.25088 19.5371C7.30308 19.7025 7.35176 19.8567 7.27642 19.9203C7.19761 19.9869 6.94234 19.7435 6.64404 19.4591C6.23799 19.0719 5.75225 18.6088 5.52319 18.7479C5.34209 18.8579 5.51792 19.1563 5.73316 19.5215L5.74912 19.5486C5.84004 19.703 5.94541 19.8603 6.04155 20.0037C6.23701 20.2953 6.39443 20.5302 6.31567 20.57C6.22046 20.618 5.55708 20.1703 4.99805 19.5486C4.78228 19.3087 4.57329 19.0487 4.37905 18.807V18.807C3.95391 18.278 3.59971 17.8373 3.40088 17.8895C3.1617 17.9523 3.34263 18.4457 3.6085 18.9204C3.73281 19.1424 3.87905 19.3685 4.00566 19.5643V19.5643C4.20259 19.8687 4.35205 20.0997 4.29785 20.1281C4.22471 20.1664 3.5811 19.5388 3.14397 18.7479C2.88432 18.2781 2.6663 17.759 2.4898 17.3387C2.29839 16.8829 2.15581 16.5434 2.06192 16.5092C1.73572 16.3905 1.73572 17.0556 1.86655 18.0155C1.88361 18.1408 1.90903 18.2721 1.94032 18.4059C3.20908 22.511 7.10659 25.5 11.7179 25.5C17.3584 25.5 21.9308 21.0279 21.9308 15.5113C21.9308 10.2607 17.7888 5.9564 12.5261 5.55342C12.5328 5.30607 12.6619 4.81558 12.6619 4.81558C12.6619 4.81558 13.5909 2.56773 13.64 2.0874C13.6433 2.05552 13.6471 2.02087 13.6513 1.98398C13.7091 1.46499 13.8168 0.5 12.9866 0.5C12.5433 0.5 12.3371 0.829816 12.1013 1.20703V1.20703C12.0108 1.35184 11.9159 1.50364 11.8015 1.64644C10.9779 2.67498 9.59292 3.95941 8.80762 4.64371C7.14776 6.09004 5.51924 7.27871 4.56943 7.97197L4.56939 7.97202C4.1374 8.2873 3.84585 8.50015 3.75562 8.58809C3.07564 9.25098 0.63754 13.6487 0.63754 13.6487C0.63754 13.6487 -0.150913 15.0597 0.129336 15.3458C0.409585 15.632 1.08541 15.5664 1.08541 15.5664C1.08541 15.5664 10.1646 13.4835 10.9774 13.3193C11.1962 13.275 11.3507 13.2495 11.4693 13.2299C11.7914 13.1768 11.8492 13.1672 12.2127 12.9454ZM5.79346 10.2688C5.3061 10.732 4.49785 11.8377 4.49785 11.8377C4.49785 11.8377 6 11.9302 6.8273 11.1438C7.65464 10.3574 7.46509 9.01724 7.46509 9.01724C7.46509 9.01724 6.28076 9.80552 5.79346 10.2688Z" fill="#0F6AC0"/>
</svg>
