<svg width="26" height="26" viewBox="0 0 26 26" fill="none" xmlns="http://www.w3.org/2000/svg">
<path fill-rule="evenodd" clip-rule="evenodd" d="M5.51608 20.3238L9.52608 19.1611L12.9896 25.4938C12.9941 25.5021 13.0059 25.5021 13.0104 25.4938L16.4739 19.1611L20.4839 20.3238C20.4929 20.3264 20.5013 20.318 20.4986 20.3091L19.3356 16.3784L25.4938 13.0104C25.5021 13.0059 25.5021 12.9941 25.4938 12.9896L19.2849 9.59381L20.4986 5.49162C20.5013 5.48264 20.4929 5.47429 20.4839 5.47687L16.3798 6.6669L13.0104 0.506162C13.0059 0.497946 12.9941 0.497946 12.9896 0.506162L9.62018 6.6669L5.51608 5.47687C5.5071 5.47429 5.49875 5.48264 5.50144 5.49162L6.7151 9.59381L0.506162 12.9896C0.497946 12.9941 0.497946 13.0059 0.506162 13.0104L6.66432 16.3784L5.50144 20.3091C5.49875 20.318 5.5071 20.3264 5.51608 20.3238ZM8.62781 13.0432L11.4687 14.5969L13.0224 17.4377C13.0269 17.446 13.0387 17.446 13.0432 17.4377L14.5969 14.5969L17.4377 13.0432C17.4459 13.0387 17.4459 13.0269 17.4377 13.0224L14.5969 11.4687L13.0432 8.62786C13.0387 8.61961 13.0269 8.61961 13.0224 8.62786L11.4687 11.4687L8.62781 13.0224C8.61961 13.0269 8.61961 13.0387 8.62781 13.0432Z" fill="#ED6EC7"/>
</svg>
