<svg width="24" height="26" viewBox="0 0 24 26" fill="none" xmlns="http://www.w3.org/2000/svg">
<path fill-rule="evenodd" clip-rule="evenodd" d="M3.81146 2.5784C4.11401 1.38386 5.19619 0.5 6.48477 0.5C7.45132 0.5 8.30176 0.9973 8.79414 1.75H9.60044C10.1014 1.23592 10.8012 0.916667 11.5757 0.916667C12.7111 0.916667 13.6863 1.60294 14.1091 2.58333H14.7841C15.2071 2.31926 15.7069 2.16667 16.2423 2.16667C17.3778 2.16667 18.353 2.85294 18.7757 3.83333H20.6114C20.6271 3.83333 20.6418 3.83756 20.6544 3.84493C20.7383 3.83726 20.8232 3.83333 20.909 3.83333C22.432 3.83333 23.6666 5.06794 23.6666 6.59092V14.8597L23.6666 14.875L23.6666 14.8903V15.0094C23.6666 15.0599 23.6652 15.1101 23.6625 15.1601C23.4965 20.8963 18.3386 25.5 11.9999 25.5C5.55659 25.5 0.333252 20.743 0.333252 14.875C0.333252 12.0425 1.55029 9.4689 3.53411 7.56421C3.52916 10.3256 3.5758 13.1804 3.79081 13.1314C4.36651 13.0001 3.9167 4.44724 3.81146 2.5784Z" fill="#D04164"/>
</svg>
