<svg width="20" height="26" viewBox="0 0 20 26" fill="none" xmlns="http://www.w3.org/2000/svg">
<path fill-rule="evenodd" clip-rule="evenodd" d="M14.7084 19.8064C15.0173 18.6769 14.4177 16.355 14.4177 16.355C14.4177 16.355 13.9829 18.2465 13.3034 18.9457C12.7237 19.542 12.0135 19.9556 10.9949 20.0643C11.8277 19.6598 12.4004 18.8164 12.4004 17.8416C12.4004 16.4731 11.2719 15.3637 9.8798 15.3637C8.48771 15.3637 7.35914 16.4731 7.35914 17.8416C7.35914 18.2153 7.44337 18.5697 7.5941 18.8875C6.7234 18.1939 6.58648 17.0817 6.58648 17.0817C6.58648 17.0817 5.61422 21.1184 8.29322 23.0172C10.9722 24.916 16.2202 23.2839 16.2202 23.2839C16.2202 23.2839 8.70997 28.5682 3.14483 22.8169C-1.64908 17.8625 1.89362 11.34 1.89362 11.34C1.89362 11.34 1.74062 11.9451 1.74062 12.6475C1.74062 13.3499 2.12144 13.8843 2.12144 13.8843C2.12144 13.8843 3.25743 11.4898 4.14151 10.516C4.97823 9.59444 6.02711 8.84698 6.93307 8.20137C7.63043 7.7044 8.24313 7.26778 8.60904 6.85855C10.6245 4.60492 9.38873 0.5 9.38873 0.5C9.38873 0.5 11.6607 2.50293 12.295 5.08974C12.5368 6.07578 12.3812 7.19771 12.2422 8.20098C12.0164 9.82969 11.8339 11.1458 13.465 11.0604C16.1008 10.9223 13.8104 6.85855 13.8104 6.85855C13.8104 6.85855 19.7895 10.0011 19.3428 15.4973C18.8961 20.9935 12.8073 22.243 12.8073 22.243C12.8073 22.243 14.3995 20.9358 14.7084 19.8064Z" fill="#FD7D24"/>
</svg>
