<svg width="26" height="22" viewBox="0 0 26 22" fill="none" xmlns="http://www.w3.org/2000/svg">
<path fill-rule="evenodd" clip-rule="evenodd" d="M9.22619 21.8333C12.8885 21.8333 16.0238 19.7979 17.3182 16.9126C17.334 16.8774 12.1215 18.2672 12.2877 17.7759C12.3619 17.5565 15.5572 16.3892 17.8852 15.0277C19.2232 14.2451 19.8394 12.5885 19.8394 12.5885C19.8394 12.5885 17.5851 13.683 16.4455 13.9606C14.149 14.5202 12.1275 14.46 12.1275 14.4017C12.1275 14.2756 15.4842 13.6378 20.1496 10.7948C22.3441 9.45751 22.9402 7.15409 22.9402 7.15409C22.9402 7.15409 20.5275 8.5912 19.069 9.06567C15.6102 10.1908 12.4539 10.5299 12.4539 10.3776C12.4539 10.0517 15.2316 9.28784 18.1766 7.86083C19.7078 7.11889 21.034 6.14955 22.5707 5.07157C25.0853 3.30784 25.5 0.166626 25.5 0.166626C25.5 0.166626 23.0199 1.76624 21.8096 2.29746C16.8155 4.48944 12.4057 5.63924 9.22619 5.88817C4.42657 6.26395 0.5 9.61274 0.5 13.9606C0.5 18.3086 4.40684 21.8333 9.22619 21.8333Z" fill="#748FC9"/>
</svg>
