<svg width="26" height="26" viewBox="0 0 26 26" fill="none" xmlns="http://www.w3.org/2000/svg">
<path fill-rule="evenodd" clip-rule="evenodd" d="M18.5152 25.4134C16.2602 25.5289 13.6785 25.5289 12.8012 25.4134C5.95752 24.5131 0.5 19.5094 0.5 12.7461C0.5 5.98276 6.09644 0.5 13 0.5C19.9036 0.5 25.5 5.98276 25.5 12.7461C25.5 15.8917 24.2894 18.7602 22.2998 20.9291C21.7595 21.518 22.5008 21.9311 23.254 22.3508C23.9927 22.7625 24.7428 23.1805 24.3068 23.777C23.8265 24.4342 21.2223 25.2749 18.5152 25.4134ZM11.2422 11.2153C11.2422 12.2721 10.3677 13.1288 9.28906 13.1288C8.2104 13.1288 7.33594 12.2721 7.33594 11.2153C7.33594 10.5066 7.72925 9.88789 8.31367 9.55718C8.34731 10.4786 9.10493 11.2153 10.0346 11.2153H11.2422V11.2153ZM17.2957 9.55718C17.2621 10.4786 16.5044 11.2153 15.5748 11.2153H14.3672V11.2153C14.3672 12.2721 15.2417 13.1288 16.3203 13.1288C17.399 13.1288 18.2734 12.2721 18.2734 11.2153C18.2734 10.5066 17.8801 9.88789 17.2957 9.55718Z" fill="#556AAE"/>
</svg>
