<svg width="24" height="26" viewBox="0 0 24 26" fill="none" xmlns="http://www.w3.org/2000/svg">
<path fill-rule="evenodd" clip-rule="evenodd" d="M4.14935 22.3085C4.06026 22.2247 3.97216 22.1392 3.88508 22.0522C-0.712018 17.4551 -0.712017 10.0017 3.88508 5.40465C8.48215 0.807541 23.1303 0.5 23.1303 0.5C23.1303 0.5 25.1297 17.4551 20.5326 22.0522C16.4498 26.135 10.1141 26.5917 5.52719 23.4224L9.22313 18.8869L15.1314 17.6113L10.3085 17.1291L13.3735 14.0084L16.8625 13.2441L14.1036 12.427L16.8625 7.45017L12.9383 11.8518L11.4229 9.71337L11.9564 13.2441L9.22313 16.3253L7.95616 12.427V17.6113L4.14935 22.3085Z" fill="#62B957"/>
</svg>
