<svg width="26" height="20" viewBox="0 0 26 20" fill="none" xmlns="http://www.w3.org/2000/svg">
<path fill-rule="evenodd" clip-rule="evenodd" d="M6.00607 18.992C5.99929 18.992 5.99455 18.9853 5.9968 18.9789L12.3794 0.944043C12.3808 0.940122 12.3845 0.9375 12.3887 0.9375H19.2023C19.2064 0.9375 19.2102 0.940142 19.2115 0.944087L25.4995 18.9789C25.5017 18.9853 25.4969 18.992 25.4902 18.992H6.19787H6.00607ZM0.509829 19.0625C0.502974 19.0625 0.498228 19.0557 0.500633 19.0493L5.25356 6.36018C5.255 6.35632 5.25867 6.35378 5.26276 6.35378H9.39251C9.39935 6.35378 9.40409 6.36057 9.40174 6.36696L4.80579 19.0561C4.80439 19.0599 4.80069 19.0625 4.79656 19.0625H0.509829Z" fill="#DD7748"/>
</svg>
