<svg width="26" height="22" viewBox="0 0 26 22" fill="none" xmlns="http://www.w3.org/2000/svg">
<path d="M12.6278 3.15036L6.41863 0.0751953L6.60643 6.9483L12.469 9.85181L12.6278 3.15036Z" fill="#61CEC0"/>
<path d="M19.5212 7.03199L19.4423 0.103475L13.4036 3.39111L13.4781 9.93295L19.5212 7.03199Z" fill="#61CEC0"/>
<path d="M19.5177 14.4429L25.5 11.0211L19.5146 7.87312L13.5319 11.0157L19.5177 14.4429Z" fill="#61CEC0"/>
<path d="M12.4681 11.0211L6.48583 14.4429L0.5 11.0157L6.48272 7.87312L12.4681 11.0211Z" fill="#61CEC0"/>
<path d="M19.6113 21.8623L13.4021 18.7871L13.5609 12.0856L19.4235 14.9892L19.6113 21.8623Z" fill="#61CEC0"/>
<path d="M6.55413 14.9963L6.63306 21.9248L12.6718 18.6372L12.5973 12.0954L6.55413 14.9963Z" fill="#61CEC0"/>
</svg>
