<svg width="26" height="26" viewBox="0 0 26 26" fill="none" xmlns="http://www.w3.org/2000/svg">
<path fill-rule="evenodd" clip-rule="evenodd" d="M21.3897 19.7114C23.9143 17.6928 25.5 14.7762 25.5 11.5327C25.5 5.4395 19.9036 0.5 13 0.5C6.09644 0.5 0.5 5.4395 0.5 11.5327C0.5 14.6591 1.97332 17.4817 4.34059 19.4893C4.19712 19.9847 4.11842 20.5235 4.11842 21.0869C4.11842 23.5242 5.59116 25.5 7.40791 25.5C8.58838 25.5 9.62363 24.6658 10.204 23.4128C10.7843 24.6658 11.8195 25.5 13 25.5C14.0761 25.5 15.0314 24.8068 15.6316 23.7352C16.2317 24.8068 17.1871 25.5 18.2631 25.5C20.0799 25.5 21.5526 23.5242 21.5526 21.0869C21.5526 20.6066 21.4954 20.1442 21.3897 19.7114ZM20.2369 11.7515C20.2369 14.845 16.9231 17.3527 12.8355 17.3527C8.7479 17.3527 5.43423 14.845 5.43423 11.7515C5.43423 8.65806 8.7479 6.15029 12.8355 6.15029C16.9231 6.15029 20.2369 8.65806 20.2369 11.7515Z" fill="#A552CC"/>
</svg>
