<svg width="24" height="26" viewBox="0 0 24 26" fill="none" xmlns="http://www.w3.org/2000/svg">
<path fill-rule="evenodd" clip-rule="evenodd" d="M21.777 21.2632C21.777 21.2632 18.6243 23.7917 12.3506 22.7454C7.59077 21.9515 5.05211 16.7045 5.05211 13.8842C5.05211 7.19745 10.0012 5.67576 13.3471 5.67576C16.693 5.67576 18.8757 8.93783 18.8757 11.4635C18.8757 13.9892 17.0894 16.1983 14.3094 16.1983C11.5295 16.1983 10.7062 14.2467 10.7062 12.4524C10.7062 10.6581 12.1579 10.026 13.4818 10.026C14.8057 10.026 15.259 11.1563 15.259 12.1277C15.259 13.0992 14.5053 13.4471 13.8766 13.4471C13.2479 13.4471 13.1858 13.1299 12.9452 12.7966C12.7045 12.4633 13.252 11.2016 12.3506 11.2016C11.4491 11.2016 11.2811 12.652 11.2811 12.652C11.2811 12.652 11.6097 15.4518 14.3094 15.4035C17.0092 15.3552 18.2899 13.268 17.9177 11.2016C17.5455 9.13521 15.5401 6.93942 12.0204 7.38312C8.50083 7.82682 7.06381 11.3831 7.69723 15.1835C8.33064 18.9839 12.8835 21.1859 16.4633 20.3937C20.043 19.6015 23.6084 17.0099 23.6084 10.4392C23.6084 3.86848 17.9177 -0.0811269 11.1321 0.56979C4.34642 1.2207 0.1342 7.15316 0.403819 14.2811C0.673438 21.4091 7.43704 25.2912 13.1564 25.4913C18.8757 25.6914 22.3819 22.3806 22.3819 22.3806C22.3819 22.3806 23.1704 21.6775 22.8612 21.1284C22.5521 20.5793 21.777 21.2632 21.777 21.2632Z" fill="#EA5D60"/>
</svg>
