<svg width="26" height="20" viewBox="0 0 26 20" fill="none" xmlns="http://www.w3.org/2000/svg">
<path fill-rule="evenodd" clip-rule="evenodd" d="M19.8027 9.4736C19.8013 9.47165 19.8007 9.46921 19.8011 9.46683L21.3928 0.185925C21.3935 0.181651 21.3972 0.178528 21.4015 0.178528H21.9053C21.9092 0.178528 21.9126 0.181047 21.9137 0.18475L25.4996 11.5384C25.5007 11.5419 25.4995 11.5458 25.4966 11.5481L22.8527 13.6123C22.8487 13.6154 22.843 13.6146 22.8401 13.6105L19.8027 9.4736ZM0.5 15.6262C0.5 15.63 0.502475 15.6334 0.506134 15.6346L5.95624 17.4166C5.95887 17.4175 5.96179 17.4171 5.96408 17.4155L18.1463 9.00518C18.1484 9.00377 18.1498 9.00158 18.1501 8.99914L19.4565 0.233512C19.4573 0.228132 19.4531 0.223298 19.4477 0.223298H8.65724C8.65456 0.223298 8.65208 0.224478 8.65037 0.226519L0.502048 10.0562C0.500724 10.0578 0.5 10.0598 0.5 10.0619V15.6262ZM8.22732 17.8707L14.1815 19.8211C14.1841 19.822 14.1871 19.8215 14.1894 19.8199L21.2782 14.735C21.2821 14.7323 21.2831 14.7268 21.2804 14.7228L18.623 10.7684C18.6203 10.7642 18.6147 10.7632 18.6106 10.766L8.22732 17.8707Z" fill="#BAAB82"/>
</svg>
