<svg width="15" height="15" viewBox="0 0 18 26" fill="none" xmlns="http://www.w3.org/2000/svg">
<path fill-rule="evenodd" clip-rule="evenodd" d="M17.11 17.4204C17.11 21.8827 13.479 25.5 8.99992 25.5C4.52087 25.5 0.889893 21.8827 0.889893 17.4204C0.889893 13.0806 8.56123 1.16155 8.98196 0.511124C8.99158 0.496292 9.00832 0.496292 9.0179 0.511124C9.43862 1.16155 17.11 13.0806 17.11 17.4204ZM7.64801 22.9097C3.53259 22.0093 4.23682 17.4505 4.23682 17.4505C4.23682 17.4505 5.3606 20.2024 8.08773 21.0939C10.8148 21.9853 14.1105 20.6779 14.1105 20.6779C14.1105 20.6779 11.7634 23.8102 7.64801 22.9097Z" fill="#fff"/>
</svg>
